<?xml version="1.0" encoding="UTF-8" standalone="no"?>
<!-- Created with Inkscape (http://www.inkscape.org/) -->

<svg
   width="92.365479mm"
   height="104.59496mm"
   viewBox="0 0 92.365479 104.59496"
   version="1.1"
   id="svg5"
   inkscape:version="1.1.1 (1:1.1+202109281944+c3084ef5ed)"
   sodipodi:docname="drawing.svg"
   xmlns:inkscape="http://www.inkscape.org/namespaces/inkscape"
   xmlns:sodipodi="http://sodipodi.sourceforge.net/DTD/sodipodi-0.dtd"
   xmlns="http://www.w3.org/2000/svg"
   xmlns:svg="http://www.w3.org/2000/svg">
  <sodipodi:namedview
     id="namedview7"
     pagecolor="#ffffff"
     bordercolor="#666666"
     borderopacity="1.0"
     inkscape:pageshadow="2"
     inkscape:pageopacity="0.0"
     inkscape:pagecheckerboard="0"
     inkscape:document-units="mm"
     showgrid="false"
     fit-margin-top="0"
     fit-margin-left="0"
     fit-margin-right="0"
     fit-margin-bottom="0"
     inkscape:zoom="0.64052329"
     inkscape:cx="106.1632"
     inkscape:cy="349.71406"
     inkscape:window-width="1920"
     inkscape:window-height="1043"
     inkscape:window-x="1680"
     inkscape:window-y="18"
     inkscape:window-maximized="1"
     inkscape:current-layer="layer1" />
  <defs
     id="defs2" />
  <g
     inkscape:label="Layer 1"
     inkscape:groupmode="layer"
     id="layer1"
     transform="translate(-12.869691,-22.724811)">
    <path
       style="fill:none;stroke:#000000;stroke-width:0.264583px;stroke-linecap:butt;stroke-linejoin:miter;stroke-opacity:1"
       d="m 94.753926,23.787275 c -14.830081,0 -29.660159,0 -44.490237,0 -5.614593,0 -29.697089,-2.1013 -36.634374,0.0196 -0.309132,0.09451 -1.00703,12.171327 -0.36376,12.693948 2.91477,2.368087 14.667801,0.637032 17.708115,0.842383 18.168987,1.227193 5.813615,1.843424 26.182076,2.89637 8.132723,0.42042 16.287165,0 24.430749,0 4.841481,0 9.682961,0 14.524442,0 1.59118,0 5.839793,1.336873 4.770923,0.158155 -2.58669,-2.852526 -5.131108,-5.435129 -5.794834,-9.274051"
       id="path75" />
    <path
       style="fill:none;stroke:#000000;stroke-width:0.264583px;stroke-linecap:butt;stroke-linejoin:miter;stroke-opacity:1"
       d="m 14.805707,39.881796 c -1.470521,13.235723 0.496944,26.597639 1.543682,39.785523 0.108745,1.370086 -0.574267,45.799541 2.074848,46.603761 4.538821,1.37789 12.065862,0 16.800281,0 31.809005,0 -13.78018,-0.18908 27.341928,0.80069 10.813894,0.26029 21.679024,0 32.501824,0 4.522316,0 10.06049,0.12213 10.03458,-0.21903 -0.40544,-5.33956 -2.54246,-10.56502 -2.94789,-15.94704 -0.8136,-10.80055 -2.06537,-21.525003 -2.937195,-32.324893 C 97.996101,63.447262 103.81851,57.576791 97.18618,42.471033"
       id="path77" />
    <path
       style="fill:none;stroke:#000000;stroke-width:0.264583px;stroke-linecap:butt;stroke-linejoin:miter;stroke-opacity:1;image-rendering:auto"
       d="m 29.749678,48.054183 c 6.92068,-1.471854 2.328336,-0.751168 13.925404,-0.751168 2.153341,0 21.259091,-1.925754 24.384056,0 1.033042,0.636611 -1.034796,3.746881 -1.244164,4.373202 -1.061987,3.176932 -0.894723,5.979533 -0.894723,9.28256 0,1.577782 -35.858163,2.017419 -38.439555,1.196827 C 26.545188,61.85822 27.306632,50.301945 27.306632,48.211972"
       id="path79" />
  </g>
</svg>
